<mxfile host="app.diagrams.net" agent="Mozilla/5.0 (Windows NT 10.0; Win64; x64) AppleWebKit/537.36 (KHTML, like Gecko) Chrome/136.0.0.0 Safari/537.36" version="27.0.3">
  <diagram name="Page-1" id="RHsm8JOjdeOizpMhmRfN">
    <mxGraphModel dx="1956" dy="1715" grid="1" gridSize="10" guides="1" tooltips="1" connect="1" arrows="1" fold="1" page="1" pageScale="1" pageWidth="850" pageHeight="1100" background="#ffffff" math="0" shadow="1" adaptiveColors="none">
      <root>
        <mxCell id="0" />
        <mxCell id="1" parent="0" />
        <mxCell id="JOkx6vLVpL0UzgCfy3TT-4" value="" style="swimlane;startSize=0;textShadow=1;labelBackgroundColor=none;rounded=1;fillColor=#F2CC8F;strokeColor=#E07A5F;fontColor=#0066CC;" parent="1" vertex="1">
          <mxGeometry x="-90" y="-12" width="610" height="650" as="geometry" />
        </mxCell>
        <mxCell id="JOkx6vLVpL0UzgCfy3TT-5" value="" style="line;strokeWidth=2;html=1;labelBackgroundColor=none;rounded=1;fillColor=#F2CC8F;strokeColor=#E07A5F;fontColor=#393C56;" parent="JOkx6vLVpL0UzgCfy3TT-4" vertex="1">
          <mxGeometry y="150" width="610" height="20" as="geometry" />
        </mxCell>
        <mxCell id="JOkx6vLVpL0UzgCfy3TT-6" value="" style="line;strokeWidth=2;html=1;labelBackgroundColor=none;rounded=1;fillColor=#F2CC8F;strokeColor=#E07A5F;fontColor=#393C56;" parent="JOkx6vLVpL0UzgCfy3TT-4" vertex="1">
          <mxGeometry y="440" width="610" height="80" as="geometry" />
        </mxCell>
        <mxCell id="JOkx6vLVpL0UzgCfy3TT-9" value="" style="line;strokeWidth=2;html=1;labelBackgroundColor=none;rounded=1;fillColor=#F2CC8F;strokeColor=#E07A5F;fontColor=#393C56;" parent="JOkx6vLVpL0UzgCfy3TT-4" vertex="1">
          <mxGeometry x="10" y="325" width="600" height="10" as="geometry" />
        </mxCell>
        <mxCell id="JOkx6vLVpL0UzgCfy3TT-13" value="" style="line;strokeWidth=2;direction=south;html=1;labelBackgroundColor=none;rounded=1;fillColor=#F2CC8F;strokeColor=#E07A5F;fontColor=#393C56;" parent="JOkx6vLVpL0UzgCfy3TT-4" vertex="1">
          <mxGeometry x="100" y="49" width="10" height="601" as="geometry" />
        </mxCell>
        <mxCell id="WJLT8VKpMRFI15VY-2Pe-1" value="MEMBER" style="text;html=1;align=center;verticalAlign=middle;resizable=0;points=[];autosize=1;strokeColor=none;fillColor=none;rotation=270;labelBackgroundColor=none;rounded=1;fontColor=#393C56;" parent="JOkx6vLVpL0UzgCfy3TT-4" vertex="1">
          <mxGeometry x="10" y="70" width="80" height="30" as="geometry" />
        </mxCell>
        <mxCell id="WJLT8VKpMRFI15VY-2Pe-3" value="DATABASE" style="text;html=1;align=center;verticalAlign=middle;resizable=0;points=[];autosize=1;strokeColor=none;fillColor=none;rotation=270;labelBackgroundColor=none;rounded=1;fontColor=#393C56;" parent="JOkx6vLVpL0UzgCfy3TT-4" vertex="1">
          <mxGeometry y="380" width="90" height="30" as="geometry" />
        </mxCell>
        <mxCell id="WJLT8VKpMRFI15VY-2Pe-4" value="EVENT SYSTEM" style="text;html=1;align=center;verticalAlign=middle;resizable=0;points=[];autosize=1;strokeColor=none;fillColor=none;rotation=270;labelBackgroundColor=none;rounded=1;fontColor=#393C56;" parent="JOkx6vLVpL0UzgCfy3TT-4" vertex="1">
          <mxGeometry x="-10" y="580" width="120" height="30" as="geometry" />
        </mxCell>
        <mxCell id="WJLT8VKpMRFI15VY-2Pe-42" value="" style="edgeStyle=orthogonalEdgeStyle;rounded=1;orthogonalLoop=1;jettySize=auto;html=1;labelBackgroundColor=none;fontColor=default;strokeColor=#E07A5F;" parent="JOkx6vLVpL0UzgCfy3TT-4" target="WJLT8VKpMRFI15VY-2Pe-19" edge="1">
          <mxGeometry relative="1" as="geometry">
            <mxPoint x="180" y="79" as="sourcePoint" />
          </mxGeometry>
        </mxCell>
        <mxCell id="WJLT8VKpMRFI15VY-2Pe-44" value="" style="edgeStyle=orthogonalEdgeStyle;rounded=1;orthogonalLoop=1;jettySize=auto;html=1;labelBackgroundColor=none;fontColor=default;strokeColor=#E07A5F;" parent="JOkx6vLVpL0UzgCfy3TT-4" source="WJLT8VKpMRFI15VY-2Pe-19" target="WJLT8VKpMRFI15VY-2Pe-21" edge="1">
          <mxGeometry relative="1" as="geometry" />
        </mxCell>
        <mxCell id="WJLT8VKpMRFI15VY-2Pe-19" value="Fill online form" style="rounded=1;whiteSpace=wrap;html=1;labelBackgroundColor=none;fillColor=#F2CC8F;strokeColor=#E07A5F;fontColor=#393C56;" parent="JOkx6vLVpL0UzgCfy3TT-4" vertex="1">
          <mxGeometry x="210" y="50" width="110" height="60" as="geometry" />
        </mxCell>
        <mxCell id="WJLT8VKpMRFI15VY-2Pe-45" value="" style="edgeStyle=orthogonalEdgeStyle;rounded=1;orthogonalLoop=1;jettySize=auto;html=1;labelBackgroundColor=none;fontColor=default;strokeColor=#E07A5F;" parent="JOkx6vLVpL0UzgCfy3TT-4" source="WJLT8VKpMRFI15VY-2Pe-21" target="WJLT8VKpMRFI15VY-2Pe-26" edge="1">
          <mxGeometry relative="1" as="geometry" />
        </mxCell>
        <mxCell id="WJLT8VKpMRFI15VY-2Pe-47" value="" style="edgeStyle=orthogonalEdgeStyle;rounded=1;orthogonalLoop=1;jettySize=auto;html=1;labelBackgroundColor=none;fontColor=default;strokeColor=#E07A5F;" parent="JOkx6vLVpL0UzgCfy3TT-4" source="WJLT8VKpMRFI15VY-2Pe-21" target="WJLT8VKpMRFI15VY-2Pe-26" edge="1">
          <mxGeometry relative="1" as="geometry" />
        </mxCell>
        <mxCell id="WJLT8VKpMRFI15VY-2Pe-21" value="Submit" style="rounded=1;whiteSpace=wrap;html=1;labelBackgroundColor=none;fillColor=#F2CC8F;strokeColor=#E07A5F;fontColor=#393C56;" parent="JOkx6vLVpL0UzgCfy3TT-4" vertex="1">
          <mxGeometry x="350" y="49" width="120" height="60" as="geometry" />
        </mxCell>
        <mxCell id="WJLT8VKpMRFI15VY-2Pe-80" value="" style="edgeStyle=orthogonalEdgeStyle;rounded=1;orthogonalLoop=1;jettySize=auto;html=1;labelBackgroundColor=none;fontColor=default;strokeColor=#E07A5F;" parent="JOkx6vLVpL0UzgCfy3TT-4" source="WJLT8VKpMRFI15VY-2Pe-24" target="WJLT8VKpMRFI15VY-2Pe-25" edge="1">
          <mxGeometry relative="1" as="geometry" />
        </mxCell>
        <mxCell id="WJLT8VKpMRFI15VY-2Pe-24" value="Save member date" style="rounded=1;whiteSpace=wrap;html=1;labelBackgroundColor=none;fillColor=#F2CC8F;strokeColor=#E07A5F;fontColor=#393C56;" parent="JOkx6vLVpL0UzgCfy3TT-4" vertex="1">
          <mxGeometry x="150" y="300" width="120" height="60" as="geometry" />
        </mxCell>
        <mxCell id="WJLT8VKpMRFI15VY-2Pe-59" value="" style="edgeStyle=orthogonalEdgeStyle;rounded=1;orthogonalLoop=1;jettySize=auto;html=1;entryX=0.571;entryY=0.002;entryDx=0;entryDy=0;entryPerimeter=0;labelBackgroundColor=none;fontColor=default;strokeColor=#E07A5F;" parent="JOkx6vLVpL0UzgCfy3TT-4" edge="1">
          <mxGeometry relative="1" as="geometry">
            <mxPoint x="393.47999999999996" y="369.9999999999998" as="sourcePoint" />
            <mxPoint x="395.5499999999999" y="510.11999999999966" as="targetPoint" />
            <Array as="points">
              <mxPoint x="393.52" y="440.12" />
              <mxPoint x="396.52" y="440.12" />
              <mxPoint x="396.52" y="510.12" />
            </Array>
          </mxGeometry>
        </mxCell>
        <mxCell id="WJLT8VKpMRFI15VY-2Pe-25" value="Send to ministry" style="rounded=1;whiteSpace=wrap;html=1;labelBackgroundColor=none;fillColor=#F2CC8F;strokeColor=#E07A5F;fontColor=#393C56;" parent="JOkx6vLVpL0UzgCfy3TT-4" vertex="1">
          <mxGeometry x="310" y="295" width="150" height="70" as="geometry" />
        </mxCell>
        <mxCell id="WJLT8VKpMRFI15VY-2Pe-50" value="" style="edgeStyle=orthogonalEdgeStyle;rounded=1;orthogonalLoop=1;jettySize=auto;html=1;labelBackgroundColor=none;fontColor=default;strokeColor=#E07A5F;" parent="JOkx6vLVpL0UzgCfy3TT-4" source="WJLT8VKpMRFI15VY-2Pe-26" target="WJLT8VKpMRFI15VY-2Pe-25" edge="1">
          <mxGeometry relative="1" as="geometry">
            <Array as="points">
              <mxPoint x="410" y="280" />
              <mxPoint x="410" y="280" />
            </Array>
          </mxGeometry>
        </mxCell>
        <mxCell id="WJLT8VKpMRFI15VY-2Pe-115" value="" style="edgeStyle=orthogonalEdgeStyle;rounded=1;orthogonalLoop=1;jettySize=auto;html=1;labelBackgroundColor=none;fontColor=default;strokeColor=#E07A5F;" parent="JOkx6vLVpL0UzgCfy3TT-4" source="WJLT8VKpMRFI15VY-2Pe-26" edge="1">
          <mxGeometry relative="1" as="geometry">
            <mxPoint x="490.0000000000002" y="230" as="targetPoint" />
          </mxGeometry>
        </mxCell>
        <mxCell id="WJLT8VKpMRFI15VY-2Pe-26" value="Member approve?" style="rhombus;whiteSpace=wrap;html=1;labelBackgroundColor=none;rounded=1;fillColor=#F2CC8F;strokeColor=#E07A5F;fontColor=#393C56;" parent="JOkx6vLVpL0UzgCfy3TT-4" vertex="1">
          <mxGeometry x="370" y="190" width="80" height="80" as="geometry" />
        </mxCell>
        <mxCell id="WJLT8VKpMRFI15VY-2Pe-109" value="" style="edgeStyle=orthogonalEdgeStyle;rounded=1;orthogonalLoop=1;jettySize=auto;html=1;labelBackgroundColor=none;fontColor=default;strokeColor=#E07A5F;" parent="JOkx6vLVpL0UzgCfy3TT-4" source="WJLT8VKpMRFI15VY-2Pe-30" edge="1">
          <mxGeometry relative="1" as="geometry">
            <mxPoint x="520" y="540" as="targetPoint" />
          </mxGeometry>
        </mxCell>
        <mxCell id="WJLT8VKpMRFI15VY-2Pe-30" value="Update event data" style="rounded=1;whiteSpace=wrap;html=1;labelBackgroundColor=none;fillColor=#F2CC8F;strokeColor=#E07A5F;fontColor=#393C56;" parent="JOkx6vLVpL0UzgCfy3TT-4" vertex="1">
          <mxGeometry x="310" y="510" width="170" height="60" as="geometry" />
        </mxCell>
        <mxCell id="WJLT8VKpMRFI15VY-2Pe-32" value="" style="line;strokeWidth=2;direction=south;html=1;labelBackgroundColor=none;rounded=1;fillColor=#F2CC8F;strokeColor=#E07A5F;fontColor=#393C56;" parent="JOkx6vLVpL0UzgCfy3TT-4" vertex="1">
          <mxGeometry x="100" width="10" height="110" as="geometry" />
        </mxCell>
        <mxCell id="WJLT8VKpMRFI15VY-2Pe-2" value="CHURCH STAFF" style="text;html=1;align=center;verticalAlign=middle;resizable=0;points=[];autosize=1;strokeColor=none;fillColor=none;rotation=270;labelBackgroundColor=none;rounded=1;fontColor=#393C56;" parent="JOkx6vLVpL0UzgCfy3TT-4" vertex="1">
          <mxGeometry x="-20" y="230" width="120" height="30" as="geometry" />
        </mxCell>
        <mxCell id="WJLT8VKpMRFI15VY-2Pe-68" value="Sign-up-event" style="rounded=1;whiteSpace=wrap;html=1;labelBackgroundColor=none;fillColor=#F2CC8F;strokeColor=#E07A5F;fontColor=#393C56;" parent="JOkx6vLVpL0UzgCfy3TT-4" vertex="1">
          <mxGeometry x="450" y="390" width="122.5" height="60" as="geometry" />
        </mxCell>
        <mxCell id="WJLT8VKpMRFI15VY-2Pe-111" value="" style="strokeWidth=2;html=1;shape=mxgraph.flowchart.start_2;whiteSpace=wrap;labelBackgroundColor=none;rounded=1;fillColor=#F2CC8F;strokeColor=#E07A5F;fontColor=#393C56;" parent="JOkx6vLVpL0UzgCfy3TT-4" vertex="1">
          <mxGeometry x="120" y="60" width="60" height="50" as="geometry" />
        </mxCell>
        <mxCell id="WJLT8VKpMRFI15VY-2Pe-71" value="Start" style="text;html=1;align=center;verticalAlign=middle;resizable=0;points=[];autosize=1;strokeColor=none;fillColor=none;labelBackgroundColor=none;rounded=1;fontColor=#393C56;" parent="JOkx6vLVpL0UzgCfy3TT-4" vertex="1">
          <mxGeometry x="130" y="110" width="50" height="30" as="geometry" />
        </mxCell>
        <mxCell id="WJLT8VKpMRFI15VY-2Pe-116" value="No" style="text;html=1;align=center;verticalAlign=middle;resizable=0;points=[];autosize=1;strokeColor=none;fillColor=none;labelBackgroundColor=none;rounded=1;fontColor=#393C56;" parent="JOkx6vLVpL0UzgCfy3TT-4" vertex="1">
          <mxGeometry x="451" y="205" width="40" height="30" as="geometry" />
        </mxCell>
        <mxCell id="WJLT8VKpMRFI15VY-2Pe-117" value="Yes" style="text;html=1;align=center;verticalAlign=middle;resizable=0;points=[];autosize=1;strokeColor=none;fillColor=none;labelBackgroundColor=none;rounded=1;fontColor=#393C56;" parent="JOkx6vLVpL0UzgCfy3TT-4" vertex="1">
          <mxGeometry x="410" y="265" width="40" height="30" as="geometry" />
        </mxCell>
        <mxCell id="WJLT8VKpMRFI15VY-2Pe-119" value="" style="edgeStyle=none;orthogonalLoop=1;jettySize=auto;html=1;rounded=1;labelBackgroundColor=none;fontColor=default;strokeColor=#E07A5F;" parent="JOkx6vLVpL0UzgCfy3TT-4" edge="1">
          <mxGeometry width="100" relative="1" as="geometry">
            <mxPoint x="390" y="415" as="sourcePoint" />
            <mxPoint x="450" y="414.75" as="targetPoint" />
            <Array as="points" />
          </mxGeometry>
        </mxCell>
        <mxCell id="WJLT8VKpMRFI15VY-2Pe-122" value="" style="ellipse;html=1;shape=endState;fillColor=#000000;strokeColor=#ff0000;fontColor=#393C56;" parent="JOkx6vLVpL0UzgCfy3TT-4" vertex="1">
          <mxGeometry x="491" y="200" width="49" height="60" as="geometry" />
        </mxCell>
        <mxCell id="WJLT8VKpMRFI15VY-2Pe-123" value="" style="ellipse;html=1;shape=endState;fillColor=#000000;strokeColor=#ff0000;fontColor=#393C56;" parent="JOkx6vLVpL0UzgCfy3TT-4" vertex="1">
          <mxGeometry x="520" y="510" width="40" height="60" as="geometry" />
        </mxCell>
        <mxCell id="WJLT8VKpMRFI15VY-2Pe-121" value="MEMBER REGISTRATION AND EVENT MANAGEMENT" style="text;html=1;align=center;verticalAlign=middle;resizable=0;points=[];autosize=1;fillColor=none;labelBackgroundColor=none;rounded=1;fontColor=#393C56;" parent="1" vertex="1">
          <mxGeometry x="50" y="-70" width="330" height="30" as="geometry" />
        </mxCell>
      </root>
    </mxGraphModel>
  </diagram>
</mxfile>
